<?xml version="1.0" encoding="utf-8" ?><svg xmlns="http://www.w3.org/2000/svg" xmlns:xlink="http://www.w3.org/1999/xlink" width="512" height="512" viewBox="0 0 512 512"><path fill="#81C882" d="M128.551 106.235C126.708 102.498 124.317 98.9037 122.308 95.1903C117.966 87.0664 114.933 78.3085 113.319 69.2395C111.057 56.0158 111.309 36.165 119.345 24.9375C126.742 14.6031 138.282 14.2125 149.423 18.1319C157.07 20.8224 160.984 24.4526 169.588 23.7225C175.62 23.2107 178.613 21.4617 184.166 19.12C191.181 16.1624 196.98 15.6284 204.473 16.1566C215.292 16.9193 221.402 24.0322 232.171 23.8069C241.41 23.6556 248.149 17.8518 257.345 16.382C276.106 13.3835 284.822 26.5726 287.092 43.6454C289.684 63.1513 284.998 83.3156 274.841 100.129C273.568 102.237 272.33 104.417 270.843 106.385C270.948 106.418 271.052 106.452 271.156 106.486C292.948 115.503 293.167 146.674 272.781 156.602C275.322 158.966 278.002 162.019 280.486 164.524C300.273 184.48 316.215 206.39 330.744 230.386C336.28 239.707 341.4 249.268 346.09 259.042C349.187 265.605 354.469 273.951 345.917 278.739C347.956 282.922 349.03 286.316 350.322 290.731C350.831 292.469 351.937 296.771 352.684 298.209C357.715 287.455 364.795 282.39 375.923 278.387C401.279 269.265 437.58 269.482 462.087 281.171C468.994 284.465 476.137 289.804 478.705 297.327C479.807 300.554 479.893 304.292 479.999 307.687C480.186 313.628 479.801 319.665 479.836 325.628L479.785 391.365L479.82 436.866C479.856 446.233 479.801 455.709 479.742 464.955C479.656 478.452 463.476 487.647 452.097 490.903C423.252 499.157 384.436 498.858 359.76 480.455C357.578 482.558 353.48 484.913 350.765 486.341C336.185 494.007 318.659 496.244 302.318 495.962C284.132 495.649 259.446 492.106 246.149 478.446C239.116 471.222 239.801 464.055 239.962 454.622C240.075 449.9 240.108 445.177 240.06 440.455C236.674 440.108 227.366 439.628 224.105 440.603C222.249 447.575 218.619 448.021 212.136 447.999C204.053 447.971 195.97 448.202 187.889 448.222L147.059 448.244C136.532 448.245 126.635 448.467 116.146 447.239C94.9734 444.72 75.2727 435.121 60.24 419.999C40.7768 400.53 31.9974 376.953 32.0806 349.661C32.3055 275.871 76.4079 207.215 126.975 156.666C111.393 148.721 107.121 127.174 118.565 113.92C121.733 110.253 124.46 108.654 128.551 106.235Z"/><path d="M352.684 298.209C357.715 287.455 364.795 282.39 375.923 278.387C401.279 269.265 437.58 269.482 462.087 281.171C468.994 284.465 476.137 289.804 478.705 297.327C479.807 300.554 479.893 304.292 479.999 307.687C480.186 313.628 479.801 319.665 479.836 325.628L479.785 391.365L479.82 436.866C479.856 446.233 479.801 455.709 479.742 464.955C479.656 478.452 463.476 487.647 452.097 490.903C423.252 499.157 384.436 498.858 359.76 480.455C357.578 482.558 353.48 484.913 350.765 486.341C336.185 494.007 318.659 496.244 302.318 495.962C284.132 495.649 259.446 492.106 246.149 478.446C239.116 471.222 239.801 464.055 239.962 454.622C240.075 449.9 240.108 445.177 240.06 440.455C239.964 438.873 239.997 437.179 239.977 435.588C239.851 425.816 240.2 415.973 239.96 406.209C240.121 399.347 239.831 392.363 239.992 385.541C240.154 378.643 242.15 372.758 247.501 368.135C265.448 352.631 293.477 351.394 315.738 352.272C317.062 352.535 318.987 352.701 320.389 352.863C331.738 354.172 341.561 357.6 351.974 362.192L351.969 325.716C351.971 316.639 351.807 307.243 352.684 298.209Z"/><path fill="#FED551" d="M297.321 368.356C299.104 368.159 302.538 368.201 304.476 368.178C319.142 368.102 336.042 370.598 348.396 378.862C356.411 384.223 348.176 389.833 342.997 392.3C332.61 397.247 322.12 398.94 310.811 399.662C293.284 400.267 273.49 398.98 258.576 388.317C255.918 386.417 255.581 382.371 258.088 380.249C268.322 371.586 284.287 369.086 297.321 368.356Z"/><path fill="#FEBD46" d="M409.122 288.375C425.3 286.965 446.733 289.793 460.392 298.905C468.321 304.195 460.553 309.608 455.203 312.193C444.779 317.227 434.074 318.978 422.659 319.644C406.435 321.049 384.644 318.107 371.019 308.685C368.218 306.748 367.223 302.677 370.023 300.302C380.11 291.747 396.251 289.038 409.122 288.375Z"/><path fill="#FEA728" d="M425.687 455.715C428.088 455.377 431.208 455.172 433.844 454.824C445.183 453.325 453.579 450.404 463.992 445.887C463.888 452.2 464.827 459.257 463.341 465.372C462.742 467.839 457.212 471.002 455.022 472.148C443.035 478.417 428.604 479.87 415.1 479.869C400.99 479.868 381.814 477.47 370.722 468.07C370.071 467.394 368.619 465.715 368.445 464.764C367.666 460.491 368.004 455.198 368.044 450.856L367.99 445.869C384.489 452.517 395.844 455.931 414.074 456.001C417.929 456.016 421.917 455.691 425.687 455.715Z"/><path fill="#FEBD46" d="M367.99 445.869C384.489 452.517 395.844 455.931 414.074 456.001C417.929 456.016 421.917 455.691 425.687 455.715C426.509 455.789 427.584 455.797 428.429 455.829L428.883 456.351C429.298 459.928 422.278 462.521 419.453 463.313C411.295 465.598 369.389 459.76 368.044 450.856L367.99 445.869Z"/><path fill="#FEBD46" d="M313.159 455.719C314.39 455.528 316.054 455.49 317.327 455.39C329.671 454.417 340.727 450.834 352.002 445.868C351.882 452.259 352.545 459.592 351.397 465.879C337.406 484.121 269.86 485.23 256.323 465.071C255.872 460.648 256.014 455.37 256.048 450.853C256.015 449.231 255.994 447.608 255.985 445.986C259.976 447.409 263.86 449.037 267.865 450.43C280.918 454.972 294.751 456.519 308.518 455.846C309.881 455.78 311.826 455.615 313.159 455.719Z"/><path fill="#FED551" d="M255.985 445.986C259.976 447.409 263.86 449.037 267.865 450.43C280.918 454.972 294.751 456.519 308.518 455.846C309.881 455.78 311.826 455.615 313.159 455.719C314.107 455.815 315.311 455.822 316.283 455.856L316.784 456.401C316.856 456.97 316.894 457.411 316.494 457.897C312.183 463.126 307.077 463.862 300.895 463.781C285.609 463.581 270.122 460.611 256.686 453.138C256.344 452.948 256.125 451.283 256.048 450.853C256.015 449.231 255.994 447.608 255.985 445.986Z"/><path fill="#FED551" d="M368.043 405.848C391.168 415.268 405.029 417.359 430.067 415.375C433.445 417.234 431.084 435.079 432.212 438.866C413.461 441.569 385.309 440.09 369.937 427.466C367.033 425.081 367.878 409.968 368.043 405.848Z"/><path fill="#FEBD46" d="M256.041 405.837C278.22 415.211 294.104 417.376 318.051 415.369L318.682 415.592C320.504 419.565 320.047 433.778 319.944 438.883C301.255 441.715 273.263 439.946 258.063 427.49C254.973 424.958 255.913 409.838 256.041 405.837Z"/><path fill="#FED551" d="M368.03 325.98C372.093 327.271 376.672 329.417 381.231 330.836C398.711 336.279 412.108 336.842 430.047 335.366C433.484 337.284 431.064 355.17 432.208 358.862C413.366 361.562 385.386 360.106 369.937 347.467C367.032 345.09 367.881 329.832 368.03 325.98Z"/><path fill="#FEBD46" d="M368.021 365.99C369.468 366.471 371.26 367.203 372.68 367.822C391.582 376.065 409.981 376.756 430.307 375.385C432.681 376.845 432.047 395.708 431.913 398.886C413.298 401.75 385.165 399.884 370.065 387.499C366.999 384.985 367.899 370.013 368.021 365.99Z"/><path fill="#FEBD46" d="M430.047 335.366C441.271 333.962 453.815 330.928 463.989 325.798C463.992 327.533 464.097 329.679 464.006 331.364C463.753 336.054 465.446 344.704 461.412 348.13C453.55 354.807 442.118 357.169 432.208 358.862C431.064 355.17 433.484 337.284 430.047 335.366Z"/><path fill="#FEBD46" d="M430.067 415.375C443.988 413.827 451.474 410.987 463.99 405.984C463.982 408.749 463.998 411.514 464.04 414.279C464.128 418.667 464.877 425.065 461.409 428.126C453.924 434.732 441.729 437.225 432.212 438.866C431.084 435.079 433.445 417.234 430.067 415.375Z"/><path fill="#FEA728" d="M430.307 375.385C442.499 373.311 452.676 371.561 463.992 365.789C463.998 371.072 465.372 384.602 461.519 388.023C454.27 394.457 441.473 397.532 431.913 398.886C432.047 395.708 432.681 376.845 430.307 375.385Z"/><path fill="#FEA728" d="M318.051 415.369C331.819 413.479 339.228 411.523 352.012 405.855C351.972 411.106 353.349 424.649 349.518 428.025C342.196 434.476 329.553 437.5 319.944 438.883C320.047 433.778 320.504 419.565 318.682 415.592L318.051 415.369Z"/><path d="M128.551 106.235C126.708 102.498 124.317 98.9037 122.308 95.1903C117.966 87.0664 114.933 78.3085 113.319 69.2395C111.057 56.0158 111.309 36.165 119.345 24.9375C126.742 14.6031 138.282 14.2125 149.423 18.1319C157.07 20.8224 160.984 24.4526 169.588 23.7225C175.62 23.2107 178.613 21.4617 184.166 19.12C191.181 16.1624 196.98 15.6284 204.473 16.1566C215.292 16.9193 221.402 24.0322 232.171 23.8069C241.41 23.6556 248.149 17.8518 257.345 16.382C276.106 13.3835 284.822 26.5726 287.092 43.6454C289.684 63.1513 284.998 83.3156 274.841 100.129C273.568 102.237 272.33 104.417 270.843 106.385C270.948 106.418 271.052 106.452 271.156 106.486C292.948 115.503 293.167 146.674 272.781 156.602C275.322 158.966 278.002 162.019 280.486 164.524C300.273 184.48 316.215 206.39 330.744 230.386C336.28 239.707 341.4 249.268 346.09 259.042C349.187 265.605 354.469 273.951 345.917 278.739C345.681 278.771 345.445 278.801 345.208 278.829C342.204 279.188 338.689 279.216 336.85 276.429C334.33 272.612 332.349 267.77 330.34 263.636C327.378 257.593 324.261 251.627 320.994 245.743C306.721 220.494 289.388 197.102 269.389 176.095C265.042 171.46 258.094 164.071 253.096 160.15C243.737 159.26 231.893 159.917 222.368 160.044C208.915 159.85 195.14 159.995 181.649 160.012C170.334 160.026 158.493 159.823 147.222 160.031C137.347 168.27 126.038 180.894 117.533 190.857C82.7664 231.586 54.1008 281.301 48.8364 335.476C46.3456 361.109 49.8443 382.662 66.5455 403.057C67.2951 403.973 69.6283 406.648 70.4722 407.337C80.4129 419.622 102.769 430.076 118.381 431.365C127.544 432.122 138.405 431.98 147.719 431.983L193.674 431.988C198.033 432.003 202.391 431.99 206.75 431.951C214.745 431.865 222.647 430.323 224.105 440.603C222.249 447.575 218.619 448.021 212.136 447.999C204.053 447.971 195.97 448.202 187.889 448.222L147.059 448.244C136.532 448.245 126.635 448.467 116.146 447.239C94.9734 444.72 75.2727 435.121 60.24 419.999C40.7768 400.53 31.9974 376.953 32.0806 349.661C32.3055 275.871 76.4079 207.215 126.975 156.666C111.393 148.721 107.121 127.174 118.565 113.92C121.733 110.253 124.46 108.654 128.551 106.235Z"/><path fill="#81C882" d="M136.807 88.1604C129.619 73.4268 126.369 58.4171 129.404 41.9084C130.111 38.061 131.975 34.1372 135.346 31.9276C137.754 32.0776 141.325 32.3984 143.55 33.2235C150.716 35.8809 155.922 39.134 163.843 39.6823C169.966 40.1061 176.093 39.7484 181.914 37.5536C188.646 35.0151 192.614 32.1721 200.071 32.1953C207.392 32.2181 211.095 34.8249 217.704 37.404C224.497 40.0547 231.639 40.1756 238.806 39.3668C240.926 38.8757 243.251 38.4162 245.571 37.6119C251.502 35.57 259.441 30.3499 265.848 32.6156C267.936 33.354 270.054 39.2902 270.511 41.4739C274.893 62.3895 267.839 84.6444 254.772 101.159C254.088 102.023 253.285 103.078 252.682 103.999L181.75 103.958C169.886 103.962 159.348 104.333 147.43 103.893C143.918 99.5059 139.094 93.2469 136.807 88.1604Z"/><path fill="#66BB68" d="M238.806 39.3668C240.926 38.8757 243.251 38.4162 245.571 37.6119C251.502 35.57 259.441 30.3499 265.848 32.6156C267.936 33.354 270.054 39.2902 270.511 41.4739C274.893 62.3895 267.839 84.6444 254.772 101.159C254.088 102.023 253.285 103.078 252.682 103.999L181.75 103.958C169.886 103.962 159.348 104.333 147.43 103.893C143.918 99.5059 139.094 93.2469 136.807 88.1604C138.477 87.8587 148.575 87.9991 150.795 87.9999L178.499 88.0055C186.902 88.0051 198.097 88.4957 205.991 86.4546C216.132 83.7938 224.793 77.1964 230.052 68.1258C233.48 62.297 240.484 45.7638 238.806 39.3668Z"/><path fill="#FEA728" d="M234.119 120.047L249.67 119.966C254.059 119.942 258.285 119.662 262.638 120.503C268.443 121.623 271.922 126.328 271.914 132.164C271.916 135.365 270.623 138.431 268.329 140.664C266.243 142.684 264.462 143.349 261.683 143.621C256.149 144.163 250.169 143.983 244.585 143.983L215.982 143.985L167.291 143.98C158.645 143.979 150.003 143.999 141.356 143.922C134.663 143.862 129.967 141.351 128.306 134.482C128.284 133.862 128.276 133.241 128.282 132.62C128.425 125.388 131.841 121.011 139.245 120.38C144.028 119.972 148.358 120.008 153.147 120.005L173.511 119.999C193.469 119.995 214.215 119.707 234.119 120.047Z"/><path fill="#FEBD46" d="M128.306 134.482C128.284 133.862 128.276 133.241 128.282 132.62C128.425 125.388 131.841 121.011 139.245 120.38C144.028 119.972 148.358 120.008 153.147 120.005L173.511 119.999C193.469 119.995 214.215 119.707 234.119 120.047C235.969 120.266 237.395 120.222 239.254 120.201C237.509 128.721 231.116 134.854 222.334 135.553C215.123 136.126 207.962 135.982 200.736 135.985L166.352 135.99L144.051 135.979C140.098 135.974 135.147 135.921 131.164 135.518C130.895 135.491 128.685 134.631 128.306 134.482Z"/><path fill="#66BB68" d="M222.368 160.044C231.893 159.917 243.737 159.26 253.096 160.15C258.094 164.071 265.042 171.46 269.389 176.095C289.388 197.102 306.721 220.494 320.994 245.743C324.261 251.627 327.378 257.593 330.34 263.636C332.349 267.77 334.33 272.612 336.85 276.429C338.689 279.216 342.204 279.188 345.208 278.829C345.445 278.801 345.681 278.771 345.917 278.739C347.956 282.922 349.03 286.316 350.322 290.731C350.831 292.469 351.937 296.771 352.684 298.209C351.807 307.243 351.971 316.639 351.969 325.716L351.974 362.192C341.561 357.6 331.738 354.172 320.389 352.863C318.987 352.701 317.062 352.535 315.738 352.272C316.725 352.26 316.828 352.273 317.773 352.057C319.091 348.614 319.59 342.13 319.697 338.375C321.262 283.324 290.8 230.332 255.614 190.349C249.784 183.707 243.713 177.283 237.411 171.088C234.076 167.854 229.238 163.81 226.266 160.581L226.037 160.33C226.1 160.358 222.503 160.057 222.368 160.044Z"/><path fill="#66BB68" d="M239.824 415.768C239.804 413.078 239.713 408.801 239.96 406.209C240.2 415.973 239.851 425.816 239.977 435.588C239.997 437.179 239.964 438.873 240.06 440.455C236.674 440.108 227.366 439.628 224.105 440.603C222.647 430.323 214.745 431.865 206.75 431.951C202.391 431.99 198.033 432.003 193.674 431.988L147.719 431.983C138.405 431.98 127.544 432.122 118.381 431.365C102.769 430.076 80.4129 419.622 70.4722 407.337C71.6679 406.799 74.6322 408.215 75.842 408.757C92.9138 416.402 110.069 416.003 128.41 415.999L163.227 416L210.623 416C220.136 415.999 230.382 416.19 239.824 415.768Z"/><path d="M199.196 224.061C208.8 222.932 208.539 234.665 208.066 241.132C210.024 241.644 211.935 242.321 213.779 243.154C220.901 246.292 227.445 253.875 230.042 261.15C231.471 265.154 233.087 271.32 231.179 275.373C230.239 277.327 228.543 278.812 226.483 279.486C224.475 280.145 222.128 280.061 220.21 279.102C216 276.996 216.217 271.265 214.932 267.251C213.605 263.105 211.473 260.035 207.523 257.975C203.606 255.978 199.055 255.624 194.876 256.991C190.877 258.287 187.589 261.172 185.782 264.967C183.866 268.914 183.752 273.514 185.126 277.619C186.875 282.843 191.826 286.599 197.165 287.504C200.109 288.003 203.245 288.13 206.232 288.669C209.036 289.173 211.754 290.077 214.302 291.352C221.92 295.153 227.703 301.839 230.367 309.925C232.961 318.111 232.253 326.987 228.395 334.658C223.939 343.355 217.01 347.984 207.972 350.88C208.52 357.726 209.271 366.124 200.757 367.953C190.783 367.996 191.581 358.21 192.008 350.907C181.629 347.67 173.868 341.363 169.977 330.988C168.428 326.854 167.21 320.43 168.987 316.255C170.614 312.433 176.577 310.687 180.019 313.072C183.872 315.523 184.001 320.219 184.911 324.222C186.893 332.944 196.093 337.548 204.389 335.211C208.379 334.092 211.766 331.444 213.813 327.842C215.914 324.095 216.358 319.47 215.161 315.361C214.5 313.116 213.346 311.047 211.784 309.306C206.571 303.442 200.075 304.518 193.108 303.167C190.122 302.576 187.246 301.525 184.582 300.053C177.103 295.978 171.578 289.066 169.252 280.873C164.223 263.325 174.604 246.011 192.032 241.148C191.651 234.269 190.528 225.891 199.196 224.061Z"/></svg>